<svg xmlns="http://www.w3.org/2000/svg" aria-hidden="true" overflow="hidden" style="position:absolute;width:0;height:0">
  <defs>
    <symbol id="icon-facebook" viewBox="0 0 32 32">
      <path d="M23.987 2.128a36.016 36.016 0 0 0-3.936-.208h-.12.006c-4.484 0-7.27 2.856-7.27 7.453v3.122H8.9a.667.667 0 0 0-.667.666v5.134a.667.667 0 0 0 .667.666h3.767v10.294a.667.667 0 0 0 .666.666h5.304a.667.667 0 0 0 .667-.666V18.96h3.755a.668.668 0 0 0 .661-.577v-.003l.663-5.133a.665.665 0 0 0-.659-.753h-4.42V9.883c0-1.294.26-1.834 1.877-1.834h2.72a.667.667 0 0 0 .666-.666V2.789a.668.668 0 0 0-.577-.66h-.003zm-.754 4.587-2.053.001c-2.876 0-3.21 1.808-3.21 3.167v3.28a.667.667 0 0 0 .666.666h4.328l-.492 3.8h-3.835a.667.667 0 0 0-.666.667v10.29H14v-10.29a.667.667 0 0 0-.667-.667H9.568v-3.8h3.765a.667.667 0 0 0 .667-.666v-3.79c0-3.832 2.22-6.12 5.937-6.12 1.346 0 2.56.074 3.296.138v3.324z"/>
    </symbol>
    <symbol id="icon-instagram" viewBox="0 0 32 32">
      <path d="M16 10.25a5.75 5.75 0 1 0 0 11.5 5.75 5.75 0 1 0 0-11.5zm0 10A4.25 4.25 0 1 1 20.25 16a4.263 4.263 0 0 1-4.249 4.25H16zm5.5-16.5h-11a6.75 6.75 0 0 0-6.75 6.75v11a6.75 6.75 0 0 0 6.75 6.75h11a6.75 6.75 0 0 0 6.75-6.75v-11a6.75 6.75 0 0 0-6.75-6.75zm5.25 17.75a5.25 5.25 0 0 1-5.25 5.25h-11a5.25 5.25 0 0 1-5.25-5.25v-11a5.25 5.25 0 0 1 5.25-5.25h11a5.25 5.25 0 0 1 5.25 5.25v11zm-3-12a1.25 1.25 0 0 1-2.5 0 1.25 1.25 0 0 1 2.5 0z"/>
    </symbol>
    <symbol id="icon-telephone" viewBox="0 0 32 32">
      <path d="m27.655 22.957-.173-.216c-1.372-1.734-2.52-2.637-3.503-2.756-.85-.116-1.673.472-2.548 1.078l-.935.584c-.092.048-.2.093-.312.128l-.014.004c-.547.154-1.927.245-2.708-.47-.91-.832-2.32-2.354-3.418-3.685-1.048-1.377-2.2-3.095-2.801-4.176-.508-.916-.083-2.197.201-2.672.056-.093.13-.185.21-.276l.825-.761c.012-.012.017-.027.028-.038.008-.008.021-.005.03-.012.745-.628 1.514-1.274 1.62-2.105.123-.976-.483-2.296-1.858-4.03l-.168-.215C11.28 2.248 9.994.599 8.146.87c-.727.108-1.376.356-2.046.776-.006.004-.01.012-.016.016-.005.004-.012.004-.017.008l-.932.69c-.01.006-.015.018-.024.026-.007.006-.017.008-.025.014a14.69 14.69 0 0 0-.336.291l.013-.011c-.945.843-2.992 3.29-1.596 7.815.901 2.923 2.76 6.333 5.388 9.883l-.025.021 1.449 1.805.012-.009c2.85 3.37 5.75 5.976 8.407 7.553 1.773 1.054 3.322 1.402 4.597 1.402 1.677 0 2.879-.603 3.481-.995l.379-.253c.043-.03.073-.071.104-.108l.825-.622c.01-.008.015-.018.024-.026.004-.004.01-.003.016-.007.587-.536.994-1.097 1.276-1.763.732-1.705-.578-3.338-1.445-4.42zm.465 4.002c-.22.517-.541.957-1.005 1.384l-1.228.924c-1.112.722-3.49 1.616-6.943-.435-2.657-1.577-5.582-4.244-8.461-7.712l-.779-.984c-2.71-3.595-4.617-7.037-5.517-9.955-1.17-3.793.304-5.828 1.29-6.706.1-.091.2-.175.3-.259l.003-.004.895-.663a4.011 4.011 0 0 1 1.605-.621l.023-.003c1.239-.186 2.247 1.12 2.987 2.07l.173.22c1.536 1.937 1.684 2.858 1.636 3.234-.053.418-.688.952-1.248 1.423l-.079.067-.006.009-.012.007-.852.788c-.006.005-.008.012-.014.018s-.016.01-.021.016c-.121.133-.232.28-.33.437l-.007.013c-.48.801-.931 2.457-.218 3.738.623 1.12 1.808 2.89 2.898 4.319 1.138 1.381 2.59 2.95 3.532 3.81.705.643 1.686.86 2.536.86.454 0 .872-.063 1.188-.153.166-.048.338-.117.516-.204.01-.005.016-.014.026-.021.006-.003.014-.001.019-.005l.99-.619c.031-.021.053-.05.08-.076l.011.013c.61-.422 1.304-.918 1.739-.846.385.046 1.26.417 2.799 2.36l.177.222c.75.935 1.776 2.215 1.297 3.334z"/>
    </symbol>
    <symbol id="icon-arrow" viewBox="0 0 32 32">
      <path d="m12.586 27.414-10-10a2 2 0 0 1 0-2.828l10-10a2 2 0 1 1 2.828 2.828L8.828 14H28a2 2 0 1 1 0 4H8.828l6.586 6.586c.39.39.586.902.586 1.414s-.195 1.024-.586 1.414a2 2 0 0 1-2.828 0z"/>
    </symbol>
    <symbol id="icon-cosmetics" viewBox="0 0 31 32">
      <path d="M8.56 12.129H-.121a.473.473 0 0 0-.483.462v2.776c0 .256.216.463.483.463h.482v10.642c0 .256.216.463.483.463h6.751a.474.474 0 0 0 .483-.463V15.83h.482a.473.473 0 0 0 .482-.463v-2.775a.474.474 0 0 0-.482-.464zM3.256 20.92v-.925h2.893v-.925H3.256v-.925h3.858v6.015H3.257v-2.313h.965v-.925h-.965zm3.857-3.701h-4.34a.473.473 0 0 0-.482.463v6.94c0 .256.216.463.482.463h4.34v.925H1.326V15.83h5.787v1.388zm.965-2.314H.361v-1.851h7.717v1.851zm6.873-2.689V8.833a.48.48 0 0 0-.483-.477h-.482V5.975h.965v-.953H9.646v.953h3.376v2.381h-.486a.479.479 0 0 0-.479.477v3.383c-1.099.221-1.929 1.183-1.929 2.333v11.909a.48.48 0 0 0 .483.477h5.79a.479.479 0 0 0 .479-.477V14.549a2.393 2.393 0 0 0-1.928-2.333zm-1.93-2.906h.965v2.858h-.965V9.31zm-.482 3.81h1.929a1.44 1.44 0 0 1 1.447 1.429v.477h-4.822v-.477a1.44 1.44 0 0 1 1.447-1.429zm3.376 10.956h-4.823v-.951h1.929v-.953h-1.929v-6.193h4.822v8.099zm-4.823 1.906v-.953h4.822v.953h-4.822zm16.186-14.445H19.14a.46.46 0 0 0-.452.459v14.473c0 .258.202.466.452.466h8.138a.46.46 0 0 0 .452-.466V11.995a.459.459 0 0 0-.452-.459zm-.452 14.465h-7.234V12.47h7.234v13.531z"/>
      <path d="M6.631 21.013H5.425v.592h1.206v-.592zm8.44 1.185h-1.206v1.184h1.206v-1.184zm-1.507-1.185c1.163 0 2.109-.93 2.109-2.073s-.946-2.073-2.109-2.073c-1.164 0-2.11.93-2.11 2.073s.946 2.073 2.109 2.073zm0-3.109c.581 0 1.055.465 1.055 1.036s-.473 1.036-1.055 1.036c-.581 0-1.055-.465-1.055-1.036s.473-1.036 1.055-1.036zm8.515-1.63h2.26c.873 0 1.583-.663 1.583-1.48s-.71-1.48-1.583-1.48h-2.26c-.872 0-1.582.664-1.582 1.48s.71 1.48 1.582 1.48zm2.938-1.48c0 .349-.304.634-.679.634h-.678v-1.269h.678c.374 0 .679.285.679.635zm-2.938-.634h.678v1.269h-.678c-.374 0-.679-.285-.679-.634s.304-.635.679-.635zm0 6.853h2.26c.873 0 1.583-.797 1.583-1.776s-.71-1.777-1.583-1.777h-2.26c-.872 0-1.582.797-1.582 1.776s.71 1.776 1.582 1.776zm2.938-1.776c0 .419-.304.761-.679.761h-.678v-1.522h.678c.374 0 .679.342.679.761zm-2.938-.763h.678v1.523h-.678c-.374 0-.679-.342-.679-.761s.304-.761.679-.761zm0 6.685h2.26c.873 0 1.583-.797 1.583-1.776s-.71-1.777-1.583-1.777h-2.26c-.872 0-1.582.797-1.582 1.776s.71 1.777 1.582 1.777zm2.938-1.777c0 .419-.304.761-.679.761h-.678V22.62h.678c.374 0 .679.342.679.761zm-2.938-.761h.678v1.523h-.678c-.374 0-.679-.342-.679-.761s.304-.761.679-.761z"/>
    </symbol>
    <symbol id="icon-crown" viewBox="0 0 32 32">
      <path d="M29.687 10.327a1.673 1.673 0 0 0-.874-.424l-.01-.001a1.608 1.608 0 0 0-.963.155l.009-.004-6.313 3.08a.22.22 0 0 1-.267-.029.25.25 0 0 1-.057-.079l-.001-.002-3.688-7.288a1.856 1.856 0 0 0-.631-.724l-.007-.004a1.61 1.61 0 0 0-.886-.267c-.33.001-.637.101-.893.271l.006-.004c-.273.183-.49.428-.634.717l-.005.011-3.687 7.287a.257.257 0 0 1-.059.081.234.234 0 0 1-.081.05l-.002.001c-.03.01-.062.013-.093.01a.229.229 0 0 1-.091-.031l.001.001-6.313-3.08a1.593 1.593 0 0 0-.961-.154l.009-.001a1.682 1.682 0 0 0-.885.424l.001-.001c-.251.232-.44.527-.542.86l-.004.014a2.112 2.112 0 0 0-.041 1.073l-.003-.014 3.189 14.891c.053.251.153.489.293.697s.316.383.519.513a1.587 1.587 0 0 0 1.363.206c2.671-.846 5.743-1.333 8.928-1.333 3.169 0 6.226.483 9.101 1.378l-.216-.058a1.635 1.635 0 0 0 1.373-.19l-.006.004c.209-.137.384-.309.519-.509l.004-.006c.141-.209.243-.447.297-.701l3.175-14.891a2.104 2.104 0 0 0-.038-1.069l.004.015a1.914 1.914 0 0 0-.539-.87l-.001-.001zm-.874 1.54-3.188 14.891a.322.322 0 0 1-.111.178h-.001a.284.284 0 0 1-.202.028h.002c-2.786-.881-5.99-1.389-9.313-1.389s-6.527.508-9.539 1.45l.226-.061a.223.223 0 0 1-.197-.029h.001a.264.264 0 0 1-.074-.075l-.001-.001a.278.278 0 0 1-.041-.1v-.002L3.188 11.866a.317.317 0 0 1 .052-.236l-.001.001a.267.267 0 0 1 .087-.077l.001-.001a.233.233 0 0 1 .109-.03l.1.027 6.325 3.093a1.593 1.593 0 0 0 1.276.067l-.011.004a1.8 1.8 0 0 0 .967-.884l.005-.011 3.687-7.288a.261.261 0 0 1 .086-.105l.001-.001a.22.22 0 0 1 .251 0h-.001a.251.251 0 0 1 .087.104l.001.002 3.687 7.287c.211.422.558.741.973.895s.867.128 1.265-.069l6.325-3.093a.23.23 0 0 1 .262.04.273.273 0 0 1 .079.123l.001.002a.29.29 0 0 1 .008.153v-.002zM20.75 22.315a.868.868 0 0 1-.247.527.726.726 0 0 1-.502.215h-.076a36.083 36.083 0 0 0-8.014.015l.164-.015a.707.707 0 0 1-.55-.177l.001.001a.851.851 0 0 1-.276-.549v-.003a.899.899 0 0 1 .171-.608l-.002.002a.744.744 0 0 1 .501-.302h.004c1.223-.151 2.639-.237 4.075-.237s2.852.086 4.243.254l-.168-.016c.196.024.375.131.501.297s.188.38.173.596z"/>
    </symbol>
    <symbol id="icon-game" viewBox="0 0 32 32">
      <path d="M16.061 1.4c-1.05 0-2.031.478-2.867 1.261s-1.551 1.873-2.148 3.195c-.125.277-.244.565-.358.861a13.493 13.493 0 0 0-.856-.114l-.071-.006a12.678 12.678 0 0 0-1.037-.066h-.018c-1.027-.025-1.965.08-2.787.329-1.096.333-2 .943-2.525 1.852s-.601 1.998-.341 3.113c.26 1.115.847 2.28 1.693 3.457.177.247.367.494.567.742-.169.206-.355.447-.534.694l-.033.047c-.846 1.177-1.433 2.342-1.693 3.457s-.183 2.204.341 3.113c.525.909 1.43 1.519 2.526 1.851s2.398.407 3.84.263a16.8 16.8 0 0 0 .926-.12c.111.291.231.579.359.863.597 1.321 1.312 2.411 2.148 3.195s1.817 1.261 2.867 1.261 2.031-.479 2.867-1.261c.835-.783 1.551-1.873 2.147-3.195.129-.284.248-.572.36-.863.313.049.622.09.924.12 1.443.144 2.745.07 3.841-.263 1.097-.332 2.001-.943 2.526-1.852s.601-1.997.341-3.113c-.26-1.115-.847-2.28-1.693-3.457a16.252 16.252 0 0 0-.59-.772l.024.03c.196-.242.385-.489.567-.742.847-1.177 1.433-2.342 1.693-3.457s.184-2.204-.341-3.113c-.525-.909-1.43-1.52-2.525-1.852-.822-.249-1.76-.353-2.787-.329-.387.01-.753.034-1.115.072l.06-.005c-.302.03-.611.071-.926.12a14.945 14.945 0 0 0-.4-.965l.042.103c-.597-1.321-1.312-2.412-2.148-3.195S17.11 1.398 16.06 1.398zm0 1.167c.7 0 1.387.308 2.068.946.68.638 1.331 1.603 1.881 2.823.089.199.175.4.255.603a24.812 24.812 0 0 0-4.205 1.365 24.744 24.744 0 0 0-4.205-1.364c.083-.207.168-.409.255-.603.551-1.22 1.201-2.185 1.882-2.823s1.367-.945 2.068-.945zM8.337 7.696h.059c.44 0 .875.023 1.304.067l-.054-.005c.213.021.431.048.652.08a24.831 24.831 0 0 0-.922 4.324 24.81 24.81 0 0 0-3.284 2.96 13.173 13.173 0 0 1-.367-.482l-.029-.041c-.781-1.087-1.292-2.133-1.504-3.041s-.135-1.657.215-2.263c.35-.607.96-1.047 1.853-1.318.586-.178 1.287-.273 2.077-.28zm15.448 0c.789.007 1.491.103 2.077.281.893.271 1.503.711 1.853 1.318s.427 1.355.215 2.263c-.212.909-.723 1.955-1.504 3.041-.127.177-.26.352-.395.524a24.792 24.792 0 0 0-3.283-2.96 24.813 24.813 0 0 0-.921-4.324 12.99 12.99 0 0 1 1.903-.144h.059-.003zm-3.12.353c.291.874.555 1.941.741 3.035l.019.134a30.86 30.86 0 0 0-3.699-2.16l-.185-.083a20.988 20.988 0 0 1 2.972-.897l.152-.029zm-9.207 0c.99.213 2.04.523 3.123.927a31.462 31.462 0 0 0-3.992 2.312l.109-.071c.205-1.227.469-2.294.805-3.328l-.045.16zm4.603 1.528a29.166 29.166 0 0 1 3.017 1.538l-.141-.076a29.533 29.533 0 0 1 2.705 1.761 29.906 29.906 0 0 1 0 6.444 28.802 28.802 0 0 1-2.563 1.684l-.142.077c-.773.459-1.717.948-2.689 1.386l-.189.076a29.188 29.188 0 0 1-3.018-1.538l.141.076a29.334 29.334 0 0 1-2.786-1.818l.082.058a28.92 28.92 0 0 1-.173-3.208v-.016.001c0-1.111.06-2.19.173-3.223a28.583 28.583 0 0 1 2.563-1.684l.141-.076a27.612 27.612 0 0 1 2.688-1.385l.188-.076zm.079 1.758-3.344 2.064 3.344 2.063 3.343-2.063-3.343-2.064zm-6.923 2.446a32.54 32.54 0 0 0 .006 4.588l-.006-.104a22.747 22.747 0 0 1-2.348-2.226l-.016-.017a22.932 22.932 0 0 1 2.325-2.211l.039-.031zm13.688 0a22.95 22.95 0 0 1 2.348 2.225l.015.017a22.812 22.812 0 0 1-2.325 2.21l-.039.031a32.491 32.491 0 0 0-.006-4.587l.006.104zm-10.862.525v4.075l3.512 2.167v-4.075l-3.512-2.167zm8.191.002-3.511 2.167v4.073l3.511-2.167v-4.073zM6.091 16.923a24.74 24.74 0 0 0 3.284 2.96c.196 1.56.51 3.015.921 4.323-.22.032-.438.059-.651.08-1.331.133-2.493.053-3.385-.218s-1.503-.711-1.853-1.318c-.349-.607-.427-1.355-.215-2.263s.723-1.955 1.504-3.041c.127-.177.259-.351.395-.523zm19.939 0c.138.175.27.349.395.523.781 1.087 1.292 2.133 1.504 3.041s.135 1.657-.215 2.263c-.35.607-.96 1.047-1.853 1.318s-2.053.351-3.385.218a16.007 16.007 0 0 1-.65-.08c.412-1.309.725-2.765.921-4.325a24.662 24.662 0 0 0 3.283-2.959zm-4.605 3.906a22.617 22.617 0 0 1-.805 3.329l.045-.16a22.432 22.432 0 0 1-3.278-.979l.155.053a31.53 31.53 0 0 0 3.993-2.313l-.11.071zm-10.727 0a30.695 30.695 0 0 0 3.697 2.159l.185.083a21.06 21.06 0 0 1-2.971.898l-.152.029a21.104 21.104 0 0 1-.741-3.034l-.019-.134zm5.397.053.043.027.043-.027h-.085zm-.034 2.861a24.725 24.725 0 0 0 4.206 1.364c-.081.203-.167.405-.256.605-.551 1.219-1.201 2.185-1.882 2.823-.68.638-1.367.945-2.067.945s-1.387-.307-2.068-.945c-.681-.638-1.331-1.603-1.882-2.823-.089-.2-.175-.401-.256-.605a24.687 24.687 0 0 0 4.205-1.364z"/>
    </symbol>
  </defs>
</svg>
